<mxfile host="app.diagrams.net" modified="2023-11-20T17:28:00.234Z" agent="Mozilla/5.0 (Windows NT 10.0; Win64; x64) AppleWebKit/537.36 (KHTML, like Gecko) Chrome/109.0.0.0 Safari/537.36" etag="-F6ccR_T02TKvkBOfRrt" version="22.1.3" type="github">
  <diagram name="Page-1" id="OJeX0IDQ4PMq7jFIIPjB">
    <mxGraphModel dx="1050" dy="523" grid="0" gridSize="10" guides="1" tooltips="1" connect="1" arrows="1" fold="1" page="1" pageScale="1" pageWidth="850" pageHeight="1100" math="0" shadow="0">
      <root>
        <mxCell id="0" />
        <mxCell id="1" parent="0" />
        <mxCell id="tBMw4O4xf4G6506pLHV_-1" value="Event From AppSync" style="swimlane;html=1;childLayout=stackLayout;startSize=20;rounded=0;shadow=0;labelBackgroundColor=none;strokeWidth=1;fontFamily=Verdana;fontSize=8;align=center;" vertex="1" parent="1">
          <mxGeometry x="80" y="40" width="670" height="530" as="geometry" />
        </mxCell>
        <mxCell id="tBMw4O4xf4G6506pLHV_-4" style="edgeStyle=orthogonalEdgeStyle;rounded=1;html=1;labelBackgroundColor=none;startArrow=none;startFill=0;startSize=5;endArrow=classicThin;endFill=1;endSize=5;jettySize=auto;orthogonalLoop=1;strokeWidth=1;fontFamily=Verdana;fontSize=8" edge="1" parent="tBMw4O4xf4G6506pLHV_-1" source="tBMw4O4xf4G6506pLHV_-3" target="tBMw4O4xf4G6506pLHV_-7">
          <mxGeometry relative="1" as="geometry" />
        </mxCell>
        <mxCell id="tBMw4O4xf4G6506pLHV_-5" style="edgeStyle=orthogonalEdgeStyle;rounded=1;html=1;labelBackgroundColor=none;startArrow=none;startFill=0;startSize=5;endArrow=classicThin;endFill=1;endSize=5;jettySize=auto;orthogonalLoop=1;strokeWidth=1;fontFamily=Verdana;fontSize=8" edge="1" parent="tBMw4O4xf4G6506pLHV_-1" source="tBMw4O4xf4G6506pLHV_-7" target="tBMw4O4xf4G6506pLHV_-9">
          <mxGeometry relative="1" as="geometry">
            <Array as="points">
              <mxPoint x="240" y="155" />
              <mxPoint x="210" y="155" />
              <mxPoint x="210" y="200" />
            </Array>
            <mxPoint x="70" y="175" as="targetPoint" />
          </mxGeometry>
        </mxCell>
        <mxCell id="tBMw4O4xf4G6506pLHV_-2" value="AppAsync" style="swimlane;html=1;startSize=20;" vertex="1" parent="tBMw4O4xf4G6506pLHV_-1">
          <mxGeometry y="20" width="160" height="510" as="geometry" />
        </mxCell>
        <mxCell id="tBMw4O4xf4G6506pLHV_-3" value="&lt;font style=&quot;font-size: 11px;&quot;&gt;Put event&lt;/font&gt;" style="rounded=1;whiteSpace=wrap;html=1;shadow=0;labelBackgroundColor=none;strokeWidth=1;fontFamily=Verdana;fontSize=8;align=center;" vertex="1" parent="tBMw4O4xf4G6506pLHV_-2">
          <mxGeometry x="20" y="65" width="100" height="60" as="geometry" />
        </mxCell>
        <mxCell id="tBMw4O4xf4G6506pLHV_-6" value="Ecourier event bus" style="swimlane;html=1;startSize=20;" vertex="1" parent="tBMw4O4xf4G6506pLHV_-1">
          <mxGeometry x="160" y="20" width="160" height="510" as="geometry" />
        </mxCell>
        <mxCell id="tBMw4O4xf4G6506pLHV_-7" value="&lt;font style=&quot;font-size: 11px;&quot;&gt;filter event by detail type and source&lt;/font&gt;" style="rounded=1;whiteSpace=wrap;html=1;shadow=0;labelBackgroundColor=none;strokeWidth=1;fontFamily=Verdana;fontSize=8;align=center;" vertex="1" parent="tBMw4O4xf4G6506pLHV_-6">
          <mxGeometry x="30" y="65" width="100" height="60" as="geometry" />
        </mxCell>
        <mxCell id="tBMw4O4xf4G6506pLHV_-8" value="IAM role" style="swimlane;html=1;startSize=20;" vertex="1" parent="tBMw4O4xf4G6506pLHV_-1">
          <mxGeometry x="320" y="20" width="160" height="510" as="geometry" />
        </mxCell>
        <mxCell id="tBMw4O4xf4G6506pLHV_-26" style="edgeStyle=orthogonalEdgeStyle;rounded=0;orthogonalLoop=1;jettySize=auto;html=1;exitX=0.5;exitY=1;exitDx=0;exitDy=0;" edge="1" parent="tBMw4O4xf4G6506pLHV_-8" source="tBMw4O4xf4G6506pLHV_-9">
          <mxGeometry relative="1" as="geometry">
            <mxPoint x="80" y="240" as="targetPoint" />
          </mxGeometry>
        </mxCell>
        <mxCell id="tBMw4O4xf4G6506pLHV_-9" value="&lt;font style=&quot;font-size: 11px;&quot;&gt;Check policy, role&lt;/font&gt;" style="rounded=1;whiteSpace=wrap;html=1;shadow=0;labelBackgroundColor=none;strokeWidth=1;fontFamily=Verdana;fontSize=8;align=center;" vertex="1" parent="tBMw4O4xf4G6506pLHV_-8">
          <mxGeometry x="30" y="155" width="100" height="60" as="geometry" />
        </mxCell>
        <mxCell id="tBMw4O4xf4G6506pLHV_-11" value="Put event into state machine" style="rounded=1;whiteSpace=wrap;html=1;shadow=0;labelBackgroundColor=none;strokeWidth=1;fontFamily=Verdana;fontSize=8;align=center;" vertex="1" parent="tBMw4O4xf4G6506pLHV_-8">
          <mxGeometry x="25" y="330" width="110" height="60" as="geometry" />
        </mxCell>
        <mxCell id="tBMw4O4xf4G6506pLHV_-27" style="edgeStyle=orthogonalEdgeStyle;rounded=0;orthogonalLoop=1;jettySize=auto;html=1;entryX=0.5;entryY=0;entryDx=0;entryDy=0;" edge="1" parent="tBMw4O4xf4G6506pLHV_-8" source="tBMw4O4xf4G6506pLHV_-19" target="tBMw4O4xf4G6506pLHV_-11">
          <mxGeometry relative="1" as="geometry" />
        </mxCell>
        <mxCell id="tBMw4O4xf4G6506pLHV_-19" value="authorized?" style="rhombus;whiteSpace=wrap;html=1;rounded=0;shadow=0;labelBackgroundColor=none;strokeWidth=1;fontFamily=Verdana;fontSize=8;align=center;" vertex="1" parent="tBMw4O4xf4G6506pLHV_-8">
          <mxGeometry x="40" y="245" width="80" height="55" as="geometry" />
        </mxCell>
        <mxCell id="tBMw4O4xf4G6506pLHV_-15" value="State machine" style="swimlane;html=1;startSize=20;" vertex="1" parent="tBMw4O4xf4G6506pLHV_-1">
          <mxGeometry x="480" y="20" width="190" height="510" as="geometry" />
        </mxCell>
        <mxCell id="tBMw4O4xf4G6506pLHV_-16" value="&lt;span style=&quot;font-size: 11px;&quot;&gt;handle event&lt;/span&gt;" style="rounded=1;whiteSpace=wrap;html=1;shadow=0;labelBackgroundColor=none;strokeWidth=1;fontFamily=Verdana;fontSize=8;align=center;" vertex="1" parent="tBMw4O4xf4G6506pLHV_-15">
          <mxGeometry x="20" y="410" width="100" height="60" as="geometry" />
        </mxCell>
        <mxCell id="tBMw4O4xf4G6506pLHV_-28" style="edgeStyle=orthogonalEdgeStyle;rounded=0;orthogonalLoop=1;jettySize=auto;html=1;" edge="1" parent="tBMw4O4xf4G6506pLHV_-1" source="tBMw4O4xf4G6506pLHV_-11" target="tBMw4O4xf4G6506pLHV_-16">
          <mxGeometry relative="1" as="geometry" />
        </mxCell>
      </root>
    </mxGraphModel>
  </diagram>
</mxfile>
